<svg xmlns="http://www.w3.org/2000/svg" viewBox="0 0 64 64">
	<g fill=" ">
		<circle cx="32" cy="32" r="16"/>
		<path d="M12,32c0-2.211-1.789-4-4-4H4c-2.211,0-4,1.789-4,4s1.789,4,4,4h4C10.212,36,12,34.208,12,32z"/>
		<path d="M12.204,46.139l-2.832,2.833c-1.563,1.562-1.563,4.094,0,5.656c1.562,1.562,4.094,1.562,5.657,0l2.833-2.832c1.562-1.562,1.562-4.095,0-5.657C16.298,44.576,13.767,44.576,12.204,46.139z"/>
		<path d="M32,52c-2.211,0-4,1.789-4,4v4c0,2.211,1.789,4,4,4s4-1.789,4-4L36,56C36,53.788,34.21,52,32,52z"/>
		<path d="M51.798,46.143c-1.559-1.566-4.091-1.566-5.653-0.004s-1.562,4.095,0,5.657l2.829,2.828c1.562,1.57,4.094,1.562,5.656,0s1.566-4.09,0-5.656L51.798,46.143z"/>
		<path d="M60,28l-4,0.008C53.797,28,52,29.789,52,32c0,2.211,1.789,4,4,4h4c2.219,0,4-1.789,4-4C64,29.79,62.217,28,60,28z"/>
		<path d="M51.798,17.859l2.828-2.829c1.574-1.566,1.562-4.094,0-5.657c-1.559-1.567-4.09-1.567-5.652-0.004l-2.829,2.836c-1.562,1.555-1.562,4.086,0,5.649C47.699,19.426,50.239,19.418,51.798,17.859z"/>
		<path d="M32,12c2.207,0.016,4-1.789,4-4V4c0-2.219-1.789-4-4-4c-2.211-0.008-4,1.781-4,4l0.008,4C28,10.206,29.792,12,32,12z"/>
		<path d="M12.212,17.855c1.555,1.562,4.079,1.562,5.646-0.004c1.574-1.551,1.566-4.09,0.008-5.649l-2.829-2.828c-1.57-1.571-4.094-1.559-5.657,0c-1.575,1.559-1.575,4.09-0.012,5.653L12.212,17.855z"/>
	</g>
</svg>